<svg xmlns="http://www.w3.org/2000/svg" xmlns:xlink="http://www.w3.org/1999/xlink" version="1.1" id="Layer_1" x="0px" y="0px" width="100%" viewBox="200.745 161.651 624.337 668.641" enable-background="new 200.745 161.651 624.337 668.641" xml:space="preserve">
<path fill="#000000" opacity="1.000000" stroke="none" d=" M599.006897,198.940002   C661.435181,234.809128 722.239014,272.698547 784.022156,308.939545   C828.886414,335.256195 830.331909,401.241028 786.583191,429.385132   C743.579468,457.049988 700.521118,484.630768 657.611389,512.440796   C623.369995,534.632751 589.468994,557.352295 555.129578,579.389954   C528.552124,596.446228 500.789032,597.067444 473.979462,580.687012   C445.564056,563.325439 418.104797,544.396362 390.267181,526.092163   C346.419922,497.261108 301.994232,469.345947 257.260010,441.917175   C251.295288,438.259918 245.340820,434.584991 239.419266,430.858368   C195.738113,403.368042 196.880447,337.226990 241.235443,310.795135   C312.495544,268.330139 383.582764,225.574936 454.738281,182.934418   C466.285248,176.014816 477.302429,168.155472 490.660706,164.695541   C513.553955,158.765945 535.277039,161.440262 555.737732,173.220383   C570.172058,181.530853 584.382385,190.230469 599.006897,198.940002  M389.993317,459.458099   C425.647186,482.556030 461.311310,505.638123 496.948578,528.761597   C507.555054,535.643738 519.260864,535.584961 529.763977,528.637878   C546.716858,517.424683 563.670471,506.210541 580.734619,495.168152   C639.058716,457.426300 697.446289,419.782501 755.770508,382.040863   C765.723389,375.600372 765.366882,362.118835 755.261597,355.985291   C747.998840,351.576996 740.750000,347.145630 733.470520,342.765076   C665.955566,302.136841 598.494202,261.418854 530.858887,220.991898   C519.507935,214.207184 507.155396,214.023132 495.613495,220.836777   C473.524933,233.876541 451.702850,247.368271 429.788208,260.701996   C396.345459,281.049805 362.910309,301.410187 329.486877,321.789734   C309.859375,333.757385 290.213959,345.696747 270.667450,357.795532   C259.645081,364.618134 259.700409,377.030304 270.590546,384.165039   C271.426758,384.712860 272.263611,385.260132 273.109375,385.792999   C311.869171,410.213318 350.630005,434.631989 389.993317,459.458099  z"/>
<path fill="#000000" opacity="1.000000" stroke="none" d=" M475.380066,699.727051   C454.592896,685.795166 434.099670,672.084778 413.652466,658.306152   C347.740570,613.890320 281.851593,569.440491 215.931168,525.037354   C211.323685,521.933777 207.080643,518.610291 204.297638,513.617859   C198.658295,503.501556 200.093170,491.040680 207.930099,483.666992   C215.699051,476.357239 227.082550,475.571411 237.031799,481.902496   C249.541595,489.863007 261.966644,497.957520 274.390869,506.051575   C321.438232,536.701782 368.529358,567.285278 415.484619,598.075989   C440.704224,614.613708 465.683655,631.517883 490.765656,648.265320   C505.310120,657.976807 521.581482,658.073547 536.242798,648.349915   C586.368164,615.106445 636.387329,581.702148 686.601013,548.592773   C720.540100,526.214294 754.717834,504.197174 788.831970,482.085083   C800.156494,474.744751 813.832214,477.091888 820.762268,487.351624   C828.446899,498.728485 825.350891,514.562073 813.596497,522.637146   C788.190979,540.090576 762.730652,557.465027 737.219727,574.764160   C677.101379,615.530762 617.164429,656.571411 556.690796,696.804871   C530.843323,714.001404 503.303345,714.706116 475.380066,699.727051  z"/>
<path fill="#000000" opacity="1.000000" stroke="none" d=" M482.087250,762.877930   C490.323608,768.632202 498.294434,773.903442 508.361664,775.099792   C518.425659,776.295654 527.766174,774.345154 535.998962,768.840027   C556.630371,755.044189 576.934143,740.759583 597.445251,726.782410   C640.528748,697.423035 683.646423,668.113831 726.779419,638.827209   C747.177246,624.977356 767.643921,611.229004 788.076538,597.430420   C794.466064,593.115417 801.393677,591.217224 808.935059,593.482422   C825.089600,598.334656 830.318298,618.221985 819.110657,631.705505   C814.977966,636.677429 809.321472,639.682007 804.166931,643.310303   C756.765320,676.675537 709.269348,709.906982 661.908813,743.330322   C626.932007,768.014038 592.259155,793.130432 557.179138,817.665466   C532.849365,834.681641 494.625977,834.429077 470.243683,817.333801   C424.958130,785.582520 379.973297,753.401855 334.636810,721.723938   C294.353821,693.576965 253.765747,665.866577 213.308655,637.968811   C203.578705,631.259460 198.983109,620.887390 201.363739,610.941833   C205.378769,594.168335 222.458099,587.212585 236.843216,596.760376   C267.376495,617.026306 297.767609,637.506104 328.253967,657.842896   C373.573151,688.074341 418.456329,718.945312 463.338928,749.817505   C469.515411,754.066040 475.641785,758.387512 482.087250,762.877930  z"/>
<path fill="#000000" opacity="1.000000" stroke="none" d=" M549.273315,433.879517   C550.511780,439.830261 551.755981,445.346619 552.861450,450.890594   C553.812683,455.660919 552.672729,457.271545 548.024597,457.284973   C524.531921,457.352722 501.038788,457.357178 477.546143,457.289276   C472.863159,457.275726 471.933197,455.730988 472.984772,450.277344   C476.353882,432.804535 479.597504,415.304291 483.277252,397.896576   C484.344086,392.849823 483.660309,389.729584 479.442078,386.068481   C462.737946,371.570587 457.731476,351.891266 465.048584,332.923859   C472.558472,313.456726 490.354675,301.694855 512.335815,301.670776   C539.474243,301.641052 559.356384,318.526917 562.646912,345.270813   C564.704590,361.994537 557.720886,375.603333 545.114868,386.154297   C541.439209,389.230774 540.502380,392.035461 541.436462,396.333893   C544.121277,408.688629 546.636902,421.080109 549.273315,433.879517  z"/>
</svg>